<svg xmlns="http://www.w3.org/2000/svg" viewBox="0 0 48 48"><defs><style>.cls-1{fill:#f90;}.cls-2{fill-rule:evenodd;}.cls-3{fill:none;}</style></defs><g id="Layer_2" data-name="Layer 2"><g id="Layer_1-2" data-name="Layer 1"><path class="cls-1" d="M41.57,39.51c-19.82,9.43-32.11,1.54-40-3.25-.49-.3-1.32.07-.6.9C3.61,40.34,12.21,48,23.42,48s17.91-6.12,18.74-7.19.24-1.65-.59-1.3Zm5.56-3.07c-.53-.69-3.23-.82-4.94-.61s-4.26,1.24-4,1.87c.11.23.34.13,1.51,0s4.46-.53,5.15.36-1,5.2-1.37,5.89.12.88.7.41A9,9,0,0,0,46.43,41c.69-1.7,1.1-4.07.7-4.6Z"/><path class="cls-2" d="M28.25,20.27c0,2.48.06,4.54-1.19,6.74a5.16,5.16,0,0,1-4.4,2.88c-2.44,0-3.86-1.85-3.86-4.6,0-5.41,4.85-6.39,9.45-6.39Zm6.4,15.48a1.32,1.32,0,0,1-1.5.15,15.78,15.78,0,0,1-3.65-4.23C26,35.23,23.56,36.29,19,36.29c-5.34,0-9.51-3.3-9.51-9.9A10.81,10.81,0,0,1,16.3,16c3.45-1.51,8.27-1.78,12-2.2V13c0-1.51.11-3.3-.77-4.6a4.26,4.26,0,0,0-3.57-1.66,4.85,4.85,0,0,0-5.11,3.82,1.32,1.32,0,0,1-1.09,1.16l-6.17-.66a1.12,1.12,0,0,1-.94-1.33C12,2.25,18.76,0,24.8,0c3.09,0,7.12.82,9.56,3.16,3.09,2.89,2.8,6.74,2.8,10.92V24c0,3,1.23,4.28,2.39,5.89a1.18,1.18,0,0,1,0,1.68c-1.29,1.09-3.6,3.09-4.86,4.22l0,0"/><path class="cls-1" d="M41.57,39.51c-19.82,9.43-32.11,1.54-40-3.25-.49-.3-1.32.07-.6.9C3.61,40.34,12.21,48,23.42,48s17.91-6.12,18.74-7.19.24-1.65-.59-1.3Zm5.56-3.07c-.53-.69-3.23-.82-4.94-.61s-4.26,1.24-4,1.87c.11.23.34.13,1.51,0s4.46-.53,5.15.36-1,5.2-1.37,5.89.12.88.7.41A9,9,0,0,0,46.43,41c.69-1.7,1.1-4.07.7-4.6Z"/><path class="cls-2" d="M28.25,20.27c0,2.48.06,4.54-1.19,6.74a5.16,5.16,0,0,1-4.4,2.88c-2.44,0-3.86-1.85-3.86-4.6,0-5.41,4.85-6.39,9.45-6.39Zm6.4,15.48a1.32,1.32,0,0,1-1.5.15,15.78,15.78,0,0,1-3.65-4.23C26,35.23,23.56,36.29,19,36.29c-5.34,0-9.51-3.3-9.51-9.9A10.81,10.81,0,0,1,16.3,16c3.45-1.51,8.27-1.78,12-2.2V13c0-1.51.11-3.3-.77-4.6a4.26,4.26,0,0,0-3.57-1.66,4.85,4.85,0,0,0-5.11,3.82,1.32,1.32,0,0,1-1.09,1.16l-6.17-.66a1.12,1.12,0,0,1-.94-1.33C12,2.25,18.76,0,24.8,0c3.09,0,7.12.82,9.56,3.16,3.09,2.89,2.8,6.74,2.8,10.92V24c0,3,1.23,4.28,2.39,5.89a1.18,1.18,0,0,1,0,1.68c-1.29,1.09-3.6,3.09-4.86,4.22l0,0"/><rect class="cls-3" width="48" height="48"/></g></g></svg>