<?xml version="1.0" encoding="UTF-8"?><svg id="Layer_2" xmlns="http://www.w3.org/2000/svg" viewBox="0 0 48 48"><defs><style>.cls-1{fill:#ea4335;}.cls-2{fill:#fdba27;}.cls-3{fill:#4285f4;}.cls-4{fill:#34a853;}</style></defs><g id="Layer_1-2"><g id="Google"><path class="cls-1" d="m10.15,18.15L1.85,14.67C5.58,5.76,14.24,0,23.91,0h2.46c4.59,0,8.98,1.42,12.69,4.11l-5.28,7.29c-2.16-1.57-4.72-2.4-7.4-2.4h-2.46c-6.03,0-11.43,3.59-13.76,9.15Z"/><path class="cls-2" d="m1.56,32.6c-1.04-2.72-1.56-5.58-1.56-8.51v-.19c0-3.2.62-6.3,1.85-9.23l8.3,3.48c-.76,1.82-1.15,3.76-1.15,5.75v.19c0,1.83.33,3.61.97,5.3l-8.41,3.21Z"/><path class="cls-4" d="m24.09,48h-.19c-9.86,0-18.84-6.19-22.35-15.4l8.41-3.2c2.19,5.74,7.79,9.6,13.94,9.6h.19c3.66,0,7.18-1.34,9.91-3.77l5.99,6.72c-4.38,3.9-10.03,6.05-15.9,6.05Z"/><path class="cls-3" d="m39.99,41.95l-5.99-6.72c2.2-1.96,3.75-4.52,4.5-7.32h-15.4v-9h24.9v5.18c0,6.81-2.92,13.32-8.01,17.85Z"/></g></g></svg>