<svg xmlns="http://www.w3.org/2000/svg" xmlns:xlink="http://www.w3.org/1999/xlink" viewBox="0 0 48 48"><defs><style>.cls-1{fill:none;}.cls-2{clip-path:url(#clip-path);}.cls-3{fill:url(#linear-gradient);}.cls-4{clip-path:url(#clip-path-2);}.cls-5{clip-path:url(#clip-path-3);}</style><clipPath id="clip-path"><path class="cls-1" d="M33,0H15A15,15,0,0,0,0,15V33A15,15,0,0,0,15,48H33A15,15,0,0,0,48,33V15A15,15,0,0,0,33,0ZM44,33A11,11,0,0,1,33,44H15A11,11,0,0,1,4,33V15A11,11,0,0,1,15,4H33A11,11,0,0,1,44,15Z"/></clipPath><linearGradient id="linear-gradient" x1="1.18" y1="45.62" x2="37.24" y2="11.46" gradientUnits="userSpaceOnUse"><stop offset="0" stop-color="#fedf82"/><stop offset="0.52" stop-color="#ea2b02"/><stop offset="1" stop-color="#6e51d3"/></linearGradient><clipPath id="clip-path-2"><path class="cls-1" d="M24,12A12,12,0,1,0,36,24,12,12,0,0,0,24,12Zm0,20a8,8,0,1,1,8-8A8,8,0,0,1,24,32Z"/></clipPath><clipPath id="clip-path-3"><circle class="cls-1" cx="37" cy="11" r="3"/></clipPath></defs><g id="Layer_2" data-name="Layer 2"><g id="Layer_1-2" data-name="Layer 1"><g class="cls-2"><rect class="cls-3" width="48" height="48"/></g><g class="cls-4"><rect class="cls-3" width="48" height="48"/></g><g class="cls-5"><rect class="cls-3" width="48" height="48"/></g></g></g></svg>