<?xml version="1.0" encoding="UTF-8"?>
<svg xmlns="http://www.w3.org/2000/svg" xmlns:xlink="http://www.w3.org/1999/xlink" id="Layer_1" data-name="Layer 1" viewBox="0 0 476.78 104.33">
  <defs>
    <style>.cls-1{fill:none;}.cls-2{clip-path:url(#clip-path);}.cls-3{fill:#64429a;}.cls-4{fill:#f27794;}</style>
    <clipPath id="clip-path">
      <rect class="cls-1" x="1" width="475.78" height="105.33"></rect>
    </clipPath>
  </defs>
  <title>logo purple proxyempire-01</title>
  <g class="cls-2">
    <path class="cls-3" d="M127.15,59.31V18h17.5a11.81,11.81,0,0,1,5.27,1.19,13.64,13.64,0,0,1,4.16,3.14,14.88,14.88,0,0,1,2.73,4.42,13.31,13.31,0,0,1,1,5,14.37,14.37,0,0,1-.93,5.09,14.11,14.11,0,0,1-2.62,4.39,12.71,12.71,0,0,1-4.07,3.08A11.7,11.7,0,0,1,145,45.46h-9.78V59.31Zm8-20.88h9.31a4.57,4.57,0,0,0,3.69-1.81,7.45,7.45,0,0,0,1.49-4.88,8.11,8.11,0,0,0-.47-2.83A6.94,6.94,0,0,0,148,26.79a4.9,4.9,0,0,0-1.77-1.31,5.23,5.23,0,0,0-2.07-.43h-9Z"></path>
    <path class="cls-3" d="M180.78,35.58a15.25,15.25,0,0,0-6.34,1.36,8.06,8.06,0,0,0-4,3.93V59.31h-7.79V28.83h7.15v6.51a14.89,14.89,0,0,1,1.92-2.82,15.25,15.25,0,0,1,2.39-2.18,10.91,10.91,0,0,1,2.59-1.43,7.32,7.32,0,0,1,2.53-.49h1a3.08,3.08,0,0,1,.61.06Z"></path>
    <path class="cls-3" d="M197.71,59.89A16.77,16.77,0,0,1,191,58.61a14.95,14.95,0,0,1-8.2-8.49,16.88,16.88,0,0,1,0-12,15,15,0,0,1,8.2-8.5,16.77,16.77,0,0,1,6.69-1.28,16.59,16.59,0,0,1,6.66,1.28,15.07,15.07,0,0,1,8.17,8.5,16.88,16.88,0,0,1,0,12,15.48,15.48,0,0,1-3.14,5,14.81,14.81,0,0,1-5,3.46A16.8,16.8,0,0,1,197.71,59.89Zm-8-15.76a10.54,10.54,0,0,0,.61,3.69A8.94,8.94,0,0,0,192,50.7a7.44,7.44,0,0,0,2.53,1.89,7.69,7.69,0,0,0,6.28,0,7.54,7.54,0,0,0,2.53-1.89,8.88,8.88,0,0,0,1.69-2.91,11.5,11.5,0,0,0,0-7.39,8.93,8.93,0,0,0-1.69-2.9,7.35,7.35,0,0,0-5.67-2.56,7.18,7.18,0,0,0-3.14.69A7.94,7.94,0,0,0,192,37.55a9.09,9.09,0,0,0-1.69,2.91A10.67,10.67,0,0,0,189.74,44.13Z"></path>
    <path class="cls-3" d="M222.43,28.83,229,38.37l.47,1.05.58-1.05,6.52-9.54h8l-10.88,15.3,11.06,15.18h-8L230,49.83l-.52-1-.47,1-6.69,9.48h-8l11-15.18-10.82-15.3Z"></path>
    <path class="cls-3" d="M249.13,65.24a14.62,14.62,0,0,0,1.92.44,9.94,9.94,0,0,0,1.57.14,3.28,3.28,0,0,0,1.4-.29,3,3,0,0,0,1.16-1,10.2,10.2,0,0,0,1.05-2c.35-.85.71-1.92,1.1-3.2l-12-30.48h8l8.26,23.73,7.33-23.73h7.33l-12.8,36.53a10.92,10.92,0,0,1-3.78,5.23,10.64,10.64,0,0,1-6.63,2,13.58,13.58,0,0,1-1.89-.14,12.81,12.81,0,0,1-2-.5Z"></path>
    <path class="cls-4" d="M309.92,52.27v7H281.24V18H309.4v7H289.27V35h17.39v6.52H289.27V52.27Z"></path>
    <path class="cls-4" d="M362.45,59.31h-7.8V42.21c0-2.45-.41-4.23-1.25-5.35a4.06,4.06,0,0,0-3.46-1.69,6.54,6.54,0,0,0-4.36,1.77,9.79,9.79,0,0,0-2.91,4.63V59.31h-7.8V42.21c0-2.45-.41-4.23-1.25-5.35a4,4,0,0,0-3.46-1.69,6.63,6.63,0,0,0-4.33,1.74,9.5,9.5,0,0,0-2.94,4.6v17.8H315.1V28.83h7v5.64a11.6,11.6,0,0,1,4.62-4.57,13.91,13.91,0,0,1,6.72-1.6,8.57,8.57,0,0,1,5.93,1.87,8.3,8.3,0,0,1,2.68,4.59A13.23,13.23,0,0,1,346.8,30a12.77,12.77,0,0,1,6.52-1.66,9,9,0,0,1,4.59,1.05,7.57,7.57,0,0,1,2.79,2.74,11.33,11.33,0,0,1,1.37,3.83,25.45,25.45,0,0,1,.38,4.37Z"></path>
    <path class="cls-4" d="M387.52,59.89a12,12,0,0,1-6.28-1.6A11.32,11.32,0,0,1,377.05,54V71.7h-7.8V28.83h6.81v5.23a12.37,12.37,0,0,1,4.36-4.21,12.13,12.13,0,0,1,6.17-1.55,13.13,13.13,0,0,1,5.7,1.25,14.11,14.11,0,0,1,4.51,3.38,15.68,15.68,0,0,1,3,5A17.4,17.4,0,0,1,400.84,44a19.13,19.13,0,0,1-1,6.22,16.09,16.09,0,0,1-2.76,5.07,12.85,12.85,0,0,1-4.22,3.37A11.85,11.85,0,0,1,387.52,59.89Zm-2.62-6.63a6.93,6.93,0,0,0,3.23-.76,7.8,7.8,0,0,0,2.53-2,9.48,9.48,0,0,0,1.63-3,10.56,10.56,0,0,0,.58-3.49,9.81,9.81,0,0,0-.64-3.58,9.16,9.16,0,0,0-1.77-2.88,8.44,8.44,0,0,0-2.68-1.92,8.09,8.09,0,0,0-3.34-.69,7.33,7.33,0,0,0-2.27.37A7.89,7.89,0,0,0,380,36.39,9.82,9.82,0,0,0,378.24,38a6.85,6.85,0,0,0-1.19,2v7.16a10.33,10.33,0,0,0,3.2,4.33A7.27,7.27,0,0,0,384.9,53.26Z"></path>
    <path class="cls-4" d="M406.13,24.58V16.84h7.8v7.74Zm0,34.73V28.83h7.8V59.31Z"></path>
    <path class="cls-4" d="M439.12,35.58a15.25,15.25,0,0,0-6.34,1.36,8,8,0,0,0-4,3.93V59.31H421V28.83h7.15v6.51A14,14,0,0,1,430,32.52a14.82,14.82,0,0,1,2.39-2.18A10.91,10.91,0,0,1,435,28.91a7.32,7.32,0,0,1,2.53-.49h1a3.08,3.08,0,0,1,.61.06Z"></path>
    <path class="cls-4" d="M456.1,59.89a17,17,0,0,1-6.63-1.25,14.93,14.93,0,0,1-8.29-8.41,16.11,16.11,0,0,1-1.13-6,17.09,17.09,0,0,1,1.1-6.13,15.07,15.07,0,0,1,3.2-5.06,15.32,15.32,0,0,1,5.09-3.47,17,17,0,0,1,6.72-1.28,16.59,16.59,0,0,1,6.66,1.28,15.26,15.26,0,0,1,5,3.44A14.54,14.54,0,0,1,471,38,16.82,16.82,0,0,1,472,44c0,.51,0,1,0,1.46a6.69,6.69,0,0,1-.14,1.16H448.31a9,9,0,0,0,.87,3.2,8,8,0,0,0,1.8,2.38,7.85,7.85,0,0,0,2.51,1.52,8.14,8.14,0,0,0,2.9.52,9.09,9.09,0,0,0,4.4-1.13,6.08,6.08,0,0,0,2.82-3l6.69,1.86a13.61,13.61,0,0,1-5.38,5.73A16.64,16.64,0,0,1,456.1,59.89ZM464,41.51a8.07,8.07,0,0,0-2.53-5.5,8,8,0,0,0-10.79,0A7.88,7.88,0,0,0,449,38.43a8.33,8.33,0,0,0-.79,3.08Z"></path>
    <path class="cls-4" d="M103.11,19.81v6.86a51,51,0,0,1-10,61.86V93.4a54.64,54.64,0,0,0,10-73.59Z"></path>
    <path class="cls-4" d="M13.45,82.6V75.74a51,51,0,0,1,0-49.07V19.81a54.55,54.55,0,0,0,0,62.79Z"></path>
    <path class="cls-4" d="M57.39,43.27v4.55H74.52V62.57H57.39V86.06a2.75,2.75,0,0,0,2.7,2.7H88.44V103.5h-32A13.87,13.87,0,0,1,42.64,89.69V40.19A13.9,13.9,0,0,1,56.45,26.27H74.52V41H60.09C58.64,41,57.39,41.71,57.39,43.27Z"></path>
    <path class="cls-3" d="M80.17,1.16h-62V103.5H37.48v-83H75.41a3.65,3.65,0,0,1,3.67,3.67V61.6a3.65,3.65,0,0,1-3.67,3.67H62.14V84.45h18A18.11,18.11,0,0,0,98.4,66.36v-47A18.23,18.23,0,0,0,80.17,1.16Z"></path>
  </g>
  <path class="cls-3" d="M128,79.11l3.87,7.38,3.93-7.38h3.29l-5.7,10.2v5.48h-3V89.27l-5.65-10.16Z"></path>
  <path class="cls-3" d="M146.52,94.9a7.21,7.21,0,0,1-3.12-.66,7.51,7.51,0,0,1-2.41-1.8,8.31,8.31,0,0,1-1.56-2.56,8,8,0,0,1-.56-2.93,7.81,7.81,0,0,1,.59-3,8.5,8.5,0,0,1,1.61-2.54,7.85,7.85,0,0,1,2.44-1.77,7.32,7.32,0,0,1,3.07-.65,7.09,7.09,0,0,1,3.11.68,7.47,7.47,0,0,1,2.39,1.84,8.57,8.57,0,0,1,1.54,2.56,8.08,8.08,0,0,1,.54,2.92A8.19,8.19,0,0,1,152,92.51a7.48,7.48,0,0,1-2.43,1.75A7.19,7.19,0,0,1,146.52,94.9ZM142,87a6.24,6.24,0,0,0,.31,2,5.36,5.36,0,0,0,.89,1.69,4.18,4.18,0,0,0,3.37,1.6,4,4,0,0,0,2-.46,4.47,4.47,0,0,0,1.43-1.2,5.17,5.17,0,0,0,.87-1.7,6.59,6.59,0,0,0,.29-1.9,6.32,6.32,0,0,0-.31-2,5.25,5.25,0,0,0-.91-1.68,4.14,4.14,0,0,0-3.35-1.6,4.08,4.08,0,0,0-1.94.45,4.58,4.58,0,0,0-1.43,1.19,5.31,5.31,0,0,0-.89,1.68A6.55,6.55,0,0,0,142,87Z"></path>
  <path class="cls-3" d="M163.15,94.9a7.25,7.25,0,0,1-3.17-.63,5.49,5.49,0,0,1-2.12-1.73A7.44,7.44,0,0,1,156.68,90a10.83,10.83,0,0,1-.38-2.92v-8h3v8a8.4,8.4,0,0,0,.21,1.88,5.45,5.45,0,0,0,.64,1.65,3.05,3.05,0,0,0,1.16,1.15,3.54,3.54,0,0,0,1.81.42,3.6,3.6,0,0,0,1.84-.43,3.39,3.39,0,0,0,1.16-1.16,5.45,5.45,0,0,0,.64-1.65,8.9,8.9,0,0,0,.2-1.86v-8h3v8a11.34,11.34,0,0,1-.4,3,7.38,7.38,0,0,1-1.22,2.5,5.5,5.5,0,0,1-2.12,1.67A7.28,7.28,0,0,1,163.15,94.9Z"></path>
  <path class="cls-3" d="M173.08,94.79V79.11h7a4.56,4.56,0,0,1,2,.44,5.18,5.18,0,0,1,1.59,1.19,5.89,5.89,0,0,1,1,1.68,5.33,5.33,0,0,1,0,3.8,4.93,4.93,0,0,1-1,1.6,4.34,4.34,0,0,1-1.51,1.07l3.58,5.9h-3.35l-3.23-5.26h-3.05v5.26Zm3-7.93H180a1.61,1.61,0,0,0,1-.34,2.47,2.47,0,0,0,.71-.92,3.11,3.11,0,0,0,.26-1.28,2.73,2.73,0,0,0-1.08-2.21,1.72,1.72,0,0,0-1-.33h-3.71Z"></path>
  <path class="cls-3" d="M204.16,81.78h-5v13h-3v-13h-5V79.11h13Z"></path>
  <path class="cls-3" d="M206.12,94.79V79.11h7a4.56,4.56,0,0,1,2,.44,5.18,5.18,0,0,1,1.59,1.19,5.89,5.89,0,0,1,1,1.68,5.33,5.33,0,0,1,0,3.8,4.93,4.93,0,0,1-1,1.6,4.34,4.34,0,0,1-1.51,1.07l3.58,5.9h-3.36l-3.22-5.26h-3.05v5.26Zm3-7.93H213a1.61,1.61,0,0,0,1-.34,2.47,2.47,0,0,0,.71-.92,3.11,3.11,0,0,0,.26-1.28,2.73,2.73,0,0,0-1.08-2.21,1.72,1.72,0,0,0-1-.33h-3.71Z"></path>
  <path class="cls-3" d="M227.37,94.9a7.28,7.28,0,0,1-3.17-.63,5.64,5.64,0,0,1-2.12-1.73A7.44,7.44,0,0,1,220.9,90a11.24,11.24,0,0,1-.38-2.92v-8h3v8a8.4,8.4,0,0,0,.21,1.88,5.73,5.73,0,0,0,.64,1.65,3.12,3.12,0,0,0,1.16,1.15,3.59,3.59,0,0,0,1.81.42,3.64,3.64,0,0,0,1.85-.43,3.57,3.57,0,0,0,1.16-1.16A5.73,5.73,0,0,0,231,89a8.9,8.9,0,0,0,.19-1.86v-8h3v8a10.94,10.94,0,0,1-.4,3,7.36,7.36,0,0,1-1.21,2.5,5.58,5.58,0,0,1-2.12,1.67A7.33,7.33,0,0,1,227.37,94.9Z"></path>
  <path class="cls-3" d="M246.65,83.22a3.53,3.53,0,0,0-.56-.41,9.82,9.82,0,0,0-1-.52,8,8,0,0,0-1.28-.44,5.41,5.41,0,0,0-1.39-.18,3.19,3.19,0,0,0-1.86.45,1.51,1.51,0,0,0-.63,1.31,1.3,1.3,0,0,0,.4,1,3.21,3.21,0,0,0,1.19.64c.53.18,1.19.36,2,.57a14,14,0,0,1,2.68.91A4.27,4.27,0,0,1,247.94,88a3.94,3.94,0,0,1,.61,2.32,4.47,4.47,0,0,1-.46,2.11,4.19,4.19,0,0,1-1.27,1.44,5.59,5.59,0,0,1-1.86.81,9.38,9.38,0,0,1-2.22.25,11.62,11.62,0,0,1-2.34-.24,11.91,11.91,0,0,1-2.24-.7,11,11,0,0,1-2-1.09l1.35-2.63a4.2,4.2,0,0,0,.71.52,9.22,9.22,0,0,0,1.23.64,10.23,10.23,0,0,0,1.59.54,6.94,6.94,0,0,0,1.75.22,3.44,3.44,0,0,0,1.87-.4,1.32,1.32,0,0,0,.62-1.19,1.35,1.35,0,0,0-.49-1.11,4.51,4.51,0,0,0-1.41-.71c-.6-.19-1.32-.4-2.14-.62a12.28,12.28,0,0,1-2.48-.95,3.82,3.82,0,0,1-1.48-1.31,3.6,3.6,0,0,1-.5-2,4.57,4.57,0,0,1,.77-2.69,4.8,4.8,0,0,1,2.08-1.65,7.3,7.3,0,0,1,2.89-.56,8.8,8.8,0,0,1,2.09.24,11.38,11.38,0,0,1,1.84.64,12.4,12.4,0,0,1,1.55.86Z"></path>
  <path class="cls-3" d="M262.55,81.78h-5v13h-3v-13h-5V79.11h13.05Z"></path>
  <path class="cls-3" d="M275.41,92.12v2.67H264.52V79.11h10.69v2.67h-7.64v3.78h6.58V88h-6.58v4.09Z"></path>
  <path class="cls-3" d="M277.79,94.79V79.11h5.7a8.06,8.06,0,0,1,4.28,1A6.67,6.67,0,0,1,290.36,83a9,9,0,0,1,.86,3.94,8.68,8.68,0,0,1-1,4.15,6.74,6.74,0,0,1-2.68,2.74,8.23,8.23,0,0,1-4.1,1Zm10.36-7.86a6.11,6.11,0,0,0-.55-2.68A4.28,4.28,0,0,0,286,82.43a4.68,4.68,0,0,0-2.52-.65h-2.65V92.12h2.65a4.45,4.45,0,0,0,2.55-.69,4.31,4.31,0,0,0,1.57-1.85A6.24,6.24,0,0,0,288.15,86.93Z"></path>
  <path class="cls-3" d="M298.91,94.79V79.11h6.64a4.61,4.61,0,0,1,2,.44,5,5,0,0,1,1.58,1.19,5.85,5.85,0,0,1,1,1.68,5.25,5.25,0,0,1,.36,1.9,5.67,5.67,0,0,1-.59,2.51,5.06,5.06,0,0,1-1.69,2,4.4,4.4,0,0,1-2.55.75H302v5.26Zm3-7.93h3.54a1.68,1.68,0,0,0,1-.31,2,2,0,0,0,.7-.89,3.34,3.34,0,0,0,.25-1.34,3.06,3.06,0,0,0-.29-1.38,2.25,2.25,0,0,0-.78-.86,1.88,1.88,0,0,0-1-.3H302Z"></path>
  <path class="cls-3" d="M312.67,94.79V79.11h6.95a4.56,4.56,0,0,1,2,.44,5.18,5.18,0,0,1,1.59,1.19,5.89,5.89,0,0,1,1,1.68,5.33,5.33,0,0,1,0,3.8,4.93,4.93,0,0,1-1,1.6,4.34,4.34,0,0,1-1.51,1.07l3.58,5.9H322l-3.22-5.26h-3.05v5.26Zm3-7.93h3.82a1.61,1.61,0,0,0,1-.34,2.47,2.47,0,0,0,.71-.92,3.11,3.11,0,0,0,.26-1.28,2.73,2.73,0,0,0-1.08-2.21,1.72,1.72,0,0,0-1-.33h-3.71Z"></path>
  <path class="cls-3" d="M334,94.9a7.21,7.21,0,0,1-3.12-.66,7.51,7.51,0,0,1-2.41-1.8,8.31,8.31,0,0,1-1.56-2.56,8,8,0,0,1-.56-2.93,7.81,7.81,0,0,1,.59-3,8.5,8.5,0,0,1,1.61-2.54A7.85,7.85,0,0,1,331,79.65,7.32,7.32,0,0,1,334,79a7.09,7.09,0,0,1,3.11.68,7.47,7.47,0,0,1,2.39,1.84,8.57,8.57,0,0,1,1.54,2.56A8.08,8.08,0,0,1,341.6,87a8.19,8.19,0,0,1-2.16,5.51A7.48,7.48,0,0,1,337,94.26,7.19,7.19,0,0,1,334,94.9Zm-4.55-8a6.53,6.53,0,0,0,.3,2,5.6,5.6,0,0,0,.9,1.69,4.14,4.14,0,0,0,3.37,1.6,4,4,0,0,0,2-.46,4.47,4.47,0,0,0,1.43-1.2,5.17,5.17,0,0,0,.87-1.7,6.59,6.59,0,0,0,.29-1.9,6.32,6.32,0,0,0-.31-2,5.25,5.25,0,0,0-.91-1.68,4.14,4.14,0,0,0-3.35-1.6,4.08,4.08,0,0,0-1.94.45,4.58,4.58,0,0,0-1.43,1.19A5.31,5.31,0,0,0,329.7,85,6.24,6.24,0,0,0,329.41,87Z"></path>
  <path class="cls-3" d="M344.89,79.11l3.86,5.81,3.89-5.81H356l-5.43,8,5.26,7.73h-3.32l-3.71-5.59-3.69,5.59h-3.33L347,87.06l-5.44-8Z"></path>
  <path class="cls-3" d="M359.29,79.11l3.86,7.38,3.93-7.38h3.3l-5.7,10.2v5.48h-3V89.27L356,79.11Z"></path>
  <path class="cls-3" d="M376.65,94.79V79.11h6.64a4.61,4.61,0,0,1,2,.44,5,5,0,0,1,1.58,1.19,5.85,5.85,0,0,1,1,1.68,5.25,5.25,0,0,1,.36,1.9,5.67,5.67,0,0,1-.59,2.51,5.06,5.06,0,0,1-1.69,2,4.4,4.4,0,0,1-2.55.75h-3.74v5.26Zm3-7.93h3.54a1.68,1.68,0,0,0,1-.31,2,2,0,0,0,.7-.89,3.34,3.34,0,0,0,.25-1.34,3.06,3.06,0,0,0-.29-1.38,2.25,2.25,0,0,0-.78-.86,1.88,1.88,0,0,0-1-.3h-3.4Z"></path>
  <path class="cls-3" d="M393.67,79.11h3.1l5.76,15.68h-3.14l-1.3-3.91h-5.76L391,94.79h-3.13Zm3.71,9.63-2.16-6.47-2.17,6.47Z"></path>
  <path class="cls-3" d="M404.25,94.79V79.11h7a4.56,4.56,0,0,1,2,.44,5.18,5.18,0,0,1,1.59,1.19,5.89,5.89,0,0,1,1,1.68,5.33,5.33,0,0,1,0,3.8,4.79,4.79,0,0,1-1,1.6,4.21,4.21,0,0,1-1.5,1.07l3.58,5.9h-3.36l-3.22-5.26H407.3v5.26Zm3.05-7.93h3.82a1.63,1.63,0,0,0,1-.34,2.35,2.35,0,0,0,.7-.92,3,3,0,0,0,.27-1.28,2.66,2.66,0,0,0-.31-1.3,2.76,2.76,0,0,0-.77-.91,1.72,1.72,0,0,0-1-.33H407.3Z"></path>
  <path class="cls-3" d="M430.47,81.78h-5v13h-3v-13h-5V79.11h13.05Z"></path>
  <path class="cls-3" d="M435.48,84.72V94.79h-3.05V79.11h2.46L443,89.45V79.13h3V94.79h-2.52Z"></path>
  <path class="cls-3" d="M460.17,92.12v2.67H449.29V79.11H460v2.67h-7.65v3.78h6.59V88h-6.59v4.09Z"></path>
  <path class="cls-3" d="M462.56,94.79V79.11h7a4.54,4.54,0,0,1,2,.44,5.18,5.18,0,0,1,1.59,1.19,5.67,5.67,0,0,1,1,1.68,5.19,5.19,0,0,1,0,3.8,4.61,4.61,0,0,1-1,1.6,4.39,4.39,0,0,1-1.5,1.07l3.58,5.9h-3.36l-3.22-5.26h-3.05v5.26Zm3.05-7.93h3.82a1.58,1.58,0,0,0,1-.34,2.37,2.37,0,0,0,.71-.92,3,3,0,0,0,.27-1.28,2.7,2.7,0,0,0-1.09-2.21,1.69,1.69,0,0,0-1-.33h-3.71Z"></path>
</svg>
